# xmcd
#
# Track frame offsets:
#	150
#	12449
#	22666
#	32492
#	40654
#	53210
#	69288
#	81837
#	94452
#	106050
#	117929
#	128669
#	140982
#	152206
#
# Disc length: 2188 seconds
# Revision: 1
# Processed by: cddbd v1.5.2PL0 Copyright (c) Steve Scherf et al.
# Submitted via: dBpowerAMP V12.0
#
DISCID=af088a0e
DTITLE=Johnny Cash - Johnny Cash
DYEAR=2008
DGENRE=Country
TTITLE0=I Walk the Line
TTITLE1=There You Go
TTITLE2=Ballad of a Teenage Queen
TTITLE3=Guess Things Happen That Way
TTITLE4=Ring of Fire
TTITLE5=A Boy Named Sue
TTITLE6=Jackson
TTITLE7=Folsom Prison Blues
TTITLE8=So Doggone Lonesome
TTITLE9=Home of the Blues
TTITLE10=Train of Love
TTITLE11=Next in Line
TTITLE12=Big River
TTITLE13=You're the Nearest Thing to Heaven
EXTD=
EXTT0=
EXTT1=
EXTT2=
EXTT3=
EXTT4=
EXTT5=
EXTT6=
EXTT7=
EXTT8=
EXTT9=
EXTT10=
EXTT11=
EXTT12=
EXTT13=
PLAYORDER=
